HIERARCHY
ROOT Hips
{
	OFFSET 0.000000 121.760803 0.000000
	CHANNELS 6 Xposition Yposition Zposition Xrotation Yrotation Zrotation 
	JOINT Spine
	{
		OFFSET 0.072000 7.257294 -0.789700
		CHANNELS 3 Xrotation Yrotation Zrotation
		JOINT Spine1
		{
			OFFSET 0.000000 12.508769 -0.658067
			CHANNELS 3 Xrotation Yrotation Zrotation
			JOINT Spine1_split
			{
				OFFSET 0.000000 12.508769 -0.658067
				CHANNELS 3 Xrotation Yrotation Zrotation
				JOINT Spine2
				{
					OFFSET 0.000000 12.508769 -0.658067
					CHANNELS 3 Xrotation Yrotation Zrotation
					JOINT Neck
					{
						OFFSET 0.000000 14.033295 7.520400
						CHANNELS 3 Xrotation Yrotation Zrotation
						JOINT Head
						{
							OFFSET 0.000000 8.198502 5.703100
							CHANNELS 3 Xrotation Yrotation Zrotation
							JOINT HeadTop_End
							{
								OFFSET 0.000000 17.760803 13.332701
								CHANNELS 3 Xrotation Yrotation Zrotation
								End Site
								{
									OFFSET 0.000000 0.000000 0.000000
								}
							}
						}
					}
					JOINT LeftShoulder
					{
						OFFSET 6.292450 5.785301 -0.669000
						CHANNELS 3 Xrotation Yrotation Zrotation
						JOINT LeftShoulder_split
						{
							OFFSET 6.292450 5.785301 -0.669000
							CHANNELS 3 Xrotation Yrotation Zrotation
							JOINT LeftArm
							{
								OFFSET 13.907140 -6.093903 1.965100
								CHANNELS 3 Xrotation Yrotation Zrotation
								JOINT LeftForeArm
								{
									OFFSET 34.140198 0.000000 0.000000
									CHANNELS 3 Xrotation Yrotation Zrotation
									JOINT LeftHand
									{
										OFFSET 40.960209 0.000000 0.000000
										CHANNELS 3 Xrotation Yrotation Zrotation
										JOINT LeftHandThumb1
										{
											OFFSET 10.006996 -7.170425 9.573125
											CHANNELS 3 Xrotation Yrotation Zrotation
											JOINT LeftHandThumb2
											{
												OFFSET 1.835007 -1.059448 1.059443
												CHANNELS 3 Xrotation Yrotation Zrotation
												JOINT LeftHandThumb3
												{
													OFFSET 2.112267 -1.219513 1.219518
													CHANNELS 3 Xrotation Yrotation Zrotation
													JOINT LeftHandThumb4
													{
														OFFSET 4.843811 -2.796570 2.796576
														CHANNELS 3 Xrotation Yrotation Zrotation
														End Site
														{
															OFFSET 0.000000 0.000000 0.000000
														}
													}
												}
											}
										}
										JOINT LeftHandIndex1
										{
											OFFSET 18.389847 -0.922348 4.596882
											CHANNELS 3 Xrotation Yrotation Zrotation
											JOINT LeftHandIndex2
											{
												OFFSET 4.711273 0.000000 0.000000
												CHANNELS 3 Xrotation Yrotation Zrotation
												JOINT LeftHandIndex3
												{
													OFFSET 2.886131 0.000000 0.000000
													CHANNELS 3 Xrotation Yrotation Zrotation
													JOINT LeftHandIndex4
													{
														OFFSET 6.145912 0.000000 0.000000
														CHANNELS 3 Xrotation Yrotation Zrotation
														End Site
														{
															OFFSET 0.000000 0.000000 0.000000
														}
													}
												}
											}
										}
										JOINT LeftHandMiddle1
										{
											OFFSET 18.013008 0.000000 0.000000
											CHANNELS 3 Xrotation Yrotation Zrotation
											JOINT LeftHandMiddle2
											{
												OFFSET 4.946693 0.000000 0.000000
												CHANNELS 3 Xrotation Yrotation Zrotation
												JOINT LeftHandMiddle3
												{
													OFFSET 3.342232 0.000000 0.000000
													CHANNELS 3 Xrotation Yrotation Zrotation
													JOINT LeftHandMiddle4
													{
														OFFSET 4.461754 0.000000 0.000000
														CHANNELS 3 Xrotation Yrotation Zrotation
														End Site
														{
															OFFSET 0.000000 0.000000 0.000000
														}
													}
												}
											}
										}
										JOINT LeftHandRing1
										{
											OFFSET 15.849892 -0.102921 -4.126150
											CHANNELS 3 Xrotation Yrotation Zrotation
											JOINT LeftHandRing2
											{
												OFFSET 3.527054 0.000000 0.000000
												CHANNELS 3 Xrotation Yrotation Zrotation
												JOINT LeftHandRing3
												{
													OFFSET 2.961098 0.000000 0.000000
													CHANNELS 3 Xrotation Yrotation Zrotation
													JOINT LeftHandRing4
													{
														OFFSET 4.927200 0.000000 0.000000
														CHANNELS 3 Xrotation Yrotation Zrotation
														End Site
														{
															OFFSET 0.000000 0.000000 0.000000
														}
													}
												}
											}
										}
										JOINT LeftHandPinky1
										{
											OFFSET 12.791824 -0.832031 -6.799156
											CHANNELS 3 Xrotation Yrotation Zrotation
											JOINT LeftHandPinky2
											{
												OFFSET 3.327133 0.000000 0.000000
												CHANNELS 3 Xrotation Yrotation Zrotation
												JOINT LeftHandPinky3
												{
													OFFSET 3.014900 0.000000 0.000000
													CHANNELS 3 Xrotation Yrotation Zrotation
													JOINT LeftHandPinky4
													{
														OFFSET 5.847786 0.000000 0.000000
														CHANNELS 3 Xrotation Yrotation Zrotation
														End Site
														{
															OFFSET 0.000000 0.000000 0.000000
														}
													}
												}
											}
										}
									}
								}
							}
						}
					}
					JOINT RightShoulder
					{
						OFFSET -6.292450 5.785301 -0.669000
						CHANNELS 3 Xrotation Yrotation Zrotation
						JOINT RightShoulder_split
						{
							OFFSET -6.292450 5.785301 -0.669000
							CHANNELS 3 Xrotation Yrotation Zrotation
							JOINT RightArm
							{
								OFFSET -13.907140 -6.093903 1.965100
								CHANNELS 3 Xrotation Yrotation Zrotation
								JOINT RightForeArm
								{
									OFFSET -34.140198 0.000000 0.000000
									CHANNELS 3 Xrotation Yrotation Zrotation
									JOINT RightHand
									{
										OFFSET -40.960209 0.000000 0.000000
										CHANNELS 3 Xrotation Yrotation Zrotation
										JOINT RightHandThumb1
										{
											OFFSET -10.007050 -7.170456 9.573117
											CHANNELS 3 Xrotation Yrotation Zrotation
											JOINT RightHandThumb2
											{
												OFFSET -1.835007 -1.059448 1.059443
												CHANNELS 3 Xrotation Yrotation Zrotation
												JOINT RightHandThumb3
												{
													OFFSET -2.112267 -1.219513 1.219518
													CHANNELS 3 Xrotation Yrotation Zrotation
													JOINT RightHandThumb4
													{
														OFFSET -4.843834 -2.796585 2.796590
														CHANNELS 3 Xrotation Yrotation Zrotation
														End Site
														{
															OFFSET 0.000000 0.000000 0.000000
														}
													}
												}
											}
										}
										JOINT RightHandIndex1
										{
											OFFSET -18.389870 -0.922424 4.596786
											CHANNELS 3 Xrotation Yrotation Zrotation
											JOINT RightHandIndex2
											{
												OFFSET -4.711273 0.000000 0.000000
												CHANNELS 3 Xrotation Yrotation Zrotation
												JOINT RightHandIndex3
												{
													OFFSET -2.886131 0.000000 0.000000
													CHANNELS 3 Xrotation Yrotation Zrotation
													JOINT RightHandIndex4
													{
														OFFSET -6.145920 0.000000 0.000000
														CHANNELS 3 Xrotation Yrotation Zrotation
														End Site
														{
															OFFSET 0.000000 0.000000 0.000000
														}
													}
												}
											}
										}
										JOINT RightHandMiddle1
										{
											OFFSET -18.013008 0.000000 0.000000
											CHANNELS 3 Xrotation Yrotation Zrotation
											JOINT RightHandMiddle2
											{
												OFFSET -4.946693 0.000000 0.000000
												CHANNELS 3 Xrotation Yrotation Zrotation
												JOINT RightHandMiddle3
												{
													OFFSET -3.342232 0.000000 0.000000
													CHANNELS 3 Xrotation Yrotation Zrotation
													JOINT RightHandMiddle4
													{
														OFFSET -4.461754 0.000000 0.000000
														CHANNELS 3 Xrotation Yrotation Zrotation
														End Site
														{
															OFFSET 0.000000 0.000000 0.000000
														}
													}
												}
											}
										}
										JOINT RightHandRing1
										{
											OFFSET -15.849876 -0.102936 -4.126237
											CHANNELS 3 Xrotation Yrotation Zrotation
											JOINT RightHandRing2
											{
												OFFSET -3.527054 0.000000 0.000000
												CHANNELS 3 Xrotation Yrotation Zrotation
												JOINT RightHandRing3
												{
													OFFSET -2.961098 0.000000 0.000000
													CHANNELS 3 Xrotation Yrotation Zrotation
													JOINT RightHandRing4
													{
														OFFSET -4.927200 0.000000 0.000000
														CHANNELS 3 Xrotation Yrotation Zrotation
														End Site
														{
															OFFSET 0.000000 0.000000 0.000000
														}
													}
												}
											}
										}
										JOINT RightHandPinky1
										{
											OFFSET -12.791786 -0.832077 -6.799222
											CHANNELS 3 Xrotation Yrotation Zrotation
											JOINT RightHandPinky2
											{
												OFFSET -3.327133 0.000000 0.000000
												CHANNELS 3 Xrotation Yrotation Zrotation
												JOINT RightHandPinky3
												{
													OFFSET -3.014900 0.000000 0.000000
													CHANNELS 3 Xrotation Yrotation Zrotation
													JOINT RightHandPinky4
													{
														OFFSET -5.847786 0.000000 0.000000
														CHANNELS 3 Xrotation Yrotation Zrotation
														End Site
														{
															OFFSET 0.000000 0.000000 0.000000
														}
													}
												}
											}
										}
									}
								}
							}
						}
					}
				}
			}
		}
	}
	JOINT LeftUpLeg
	{
		OFFSET 13.026900 -6.336304 -1.092800
		CHANNELS 3 Xrotation Yrotation Zrotation
		JOINT LeftLeg
		{
			OFFSET 0.524474 -46.096886 9.782700
			CHANNELS 3 Xrotation Yrotation Zrotation
			JOINT LeftFoot
			{
				OFFSET -0.524474 -53.427422 -12.948200
				CHANNELS 3 Xrotation Yrotation Zrotation
				JOINT LeftToeBase
				{
					OFFSET 0.192200 -14.009700 16.364100
					CHANNELS 3 Xrotation Yrotation Zrotation
					JOINT LeftToe_End
					{
						OFFSET -1.784700 -0.561700 9.474800
						CHANNELS 3 Xrotation Yrotation Zrotation
						End Site
						{
							OFFSET 0.000000 0.000000 0.000000
						}
					}
				}
			}
		}
	}
	JOINT RightUpLeg
	{
		OFFSET -12.883000 -6.336304 -1.092800
		CHANNELS 3 Xrotation Yrotation Zrotation
		JOINT RightLeg
		{
			OFFSET -0.524587 -46.096825 9.782800
			CHANNELS 3 Xrotation Yrotation Zrotation
			JOINT RightFoot
			{
				OFFSET 0.524587 -53.427383 -12.948300
				CHANNELS 3 Xrotation Yrotation Zrotation
				JOINT RightToeBase
				{
					OFFSET -0.192200 -14.009700 16.364100
					CHANNELS 3 Xrotation Yrotation Zrotation
					JOINT RightToe_End
					{
						OFFSET 1.784700 -0.561700 9.474800
						CHANNELS 3 Xrotation Yrotation Zrotation
						End Site
						{
							OFFSET 0.000000 0.000000 0.000000
						}
					}
				}
			}
		}
	}
}
MOTION
Frames: 5
Frame Time: 0.016667
8.406841 109.629814 -7.027176 7.422630 -33.099524 -21.594253 20.121730 -4.550005 15.936887 14.882774 -0.853687 11.261193 0.000000 0.000000 0.000000 15.131231 -0.648042 9.675226 -9.983869 -2.860090 5.479619 44.315206 -21.168846 34.786365 -0.000001 0.000000 -0.000000 1.428831 -22.224476 -11.600538 0.000000 0.000000 0.000000 -29.377098 -24.713924 -57.022849 0.000016 -6.918361 0.000007 -21.663627 1.158964 -14.566413 18.491270 -0.461423 10.916059 1.284062 32.757611 -3.088964 2.117129 9.311160 -0.358623 0.000000 -0.000000 0.000000 0.339557 4.671353 -7.844269 0.387035 2.823580 -20.566224 0.034626 0.816832 -10.169807 0.000001 -0.000001 0.000001 0.912584 8.769270 -15.831752 0.919075 3.991134 -33.400424 0.170570 1.488880 -12.264411 0.000001 -0.000000 0.000000 2.555811 11.673029 -26.909209 1.710654 3.886781 -40.215461 0.544854 1.835073 -19.344153 -0.000000 -0.000001 -0.000001 5.576067 16.029182 -36.940641 1.378688 4.077646 -45.645639 0.486585 2.853392 -20.524734 0.000002 -0.000001 0.000000 2.724566 8.294336 13.453016 0.000000 0.000000 0.000000 6.429278 49.813823 20.457887 0.000003 22.722608 -0.000019 -0.688168 13.861790 2.493907 18.491279 0.461414 -10.916077 1.284042 -32.757618 3.088956 2.008700 -8.430470 1.114718 0.000000 -0.000002 -0.000000 0.339564 -4.671354 7.844285 0.387035 -2.823581 20.566255 -0.193125 -0.216346 13.843932 -0.000002 -0.000001 -0.000001 0.912582 -8.769265 15.831738 0.919075 -3.991133 33.400431 0.216467 -1.688832 15.898046 0.000001 -0.000000 0.000003 2.555811 -11.673027 26.909195 1.710650 -3.886789 40.215457 -0.157952 0.035274 17.815345 -0.000000 0.000001 0.000000 5.576076 -16.029168 36.940641 1.378690 -4.077636 45.645618 -0.727749 -0.247560 22.122747 0.000000 -0.000001 0.000000 -35.387524 -10.096342 28.663606 45.089473 5.518440 8.491879 -7.492246 29.019158 -11.203548 -0.315156 -0.000007 0.000002 0.000000 0.000001 -0.000000 -28.044159 2.678127 26.570665 22.014434 0.072806 7.989009 0.812081 13.207115 -7.716877 -4.013776 -0.000005 -0.000001 0.000000 -0.000000 0.000000 
8.323463 109.626778 -7.028145 7.429946 -32.969979 -21.569514 20.049254 -4.589849 16.003589 14.845358 -0.865569 11.290750 0.000000 0.000000 0.000000 15.093014 -0.659109 9.704702 -9.957548 -2.861791 5.471380 44.377867 -21.263545 34.788937 0.000001 -0.000000 0.000000 1.421053 -22.263295 -11.624762 0.000000 0.000000 0.000000 -29.239483 -24.946691 -57.154016 -0.000003 -6.919544 -0.000006 -22.087440 0.509893 -14.614112 18.491270 -0.461422 10.916059 1.284063 32.757608 -3.088965 2.117130 9.311165 -0.358622 -0.000000 -0.000001 -0.000000 0.339561 4.671353 -7.844270 0.387037 2.823579 -20.566227 0.034624 0.816833 -10.169806 -0.000001 0.000000 0.000002 0.912584 8.769270 -15.831752 0.919077 3.991132 -33.400431 0.170567 1.488880 -12.264413 -0.000000 -0.000000 -0.000001 2.555812 11.673031 -26.909209 1.710654 3.886782 -40.215461 0.544857 1.835073 -19.344154 0.000001 0.000001 -0.000001 5.576069 16.029182 -36.940638 1.378690 4.077645 -45.645635 0.486588 2.853393 -20.524732 0.000001 0.000000 0.000003 2.805147 8.300644 13.088458 0.000000 0.000000 0.000000 6.473861 49.476323 20.586795 0.000006 23.126216 -0.000031 -0.900188 13.002781 2.887948 18.491274 0.461412 -10.916075 1.284043 -32.757615 3.088955 2.008702 -8.430471 1.114715 0.000000 0.000001 -0.000001 0.339563 -4.671354 7.844285 0.387034 -2.823580 20.566255 -0.193125 -0.216347 13.843927 -0.000000 0.000000 -0.000001 0.912581 -8.769265 15.831736 0.919073 -3.991133 33.400424 0.216468 -1.688833 15.898039 0.000001 0.000001 0.000002 2.555812 -11.673026 26.909192 1.710652 -3.886789 40.215461 -0.157953 0.035274 17.815348 -0.000000 0.000001 -0.000000 5.576077 -16.029168 36.940644 1.378691 -4.077637 45.645621 -0.727750 -0.247558 22.122747 -0.000000 0.000000 0.000000 -35.429752 -10.044298 28.692197 45.066592 5.493612 8.491401 -7.503893 28.842096 -11.207993 -0.314751 0.000004 -0.000005 -0.000000 -0.000001 0.000000 -28.037944 2.672037 26.593114 22.043143 0.089045 7.967185 0.761386 13.063083 -7.745195 -4.015245 -0.000003 0.000002 -0.000000 -0.000000 -0.000000 
8.237627 109.628639 -7.025974 7.434347 -32.820425 -21.539037 19.979275 -4.628987 16.070429 14.807953 -0.877136 11.320876 0.000000 0.000000 0.000000 15.054854 -0.669730 9.734742 -9.931997 -2.864901 5.463874 44.440192 -21.362282 34.797611 -0.000001 0.000001 -0.000000 1.413648 -22.300066 -11.647842 0.000000 0.000000 0.000000 -29.076737 -25.170185 -57.285336 -0.000001 -6.920581 -0.000002 -22.500223 -0.128299 -14.674323 18.491269 -0.461423 10.916061 1.284062 32.757611 -3.088965 2.117130 9.311157 -0.358621 0.000000 -0.000004 0.000000 0.339561 4.671354 -7.844271 0.387033 2.823580 -20.566226 0.034626 0.816835 -10.169810 -0.000001 0.000000 -0.000001 0.912583 8.769268 -15.831752 0.919077 3.991133 -33.400424 0.170569 1.488880 -12.264411 0.000001 -0.000000 0.000001 2.555812 11.673031 -26.909209 1.710654 3.886781 -40.215461 0.544855 1.835073 -19.344154 0.000001 -0.000000 -0.000001 5.576070 16.029184 -36.940634 1.378692 4.077645 -45.645632 0.486590 2.853393 -20.524730 -0.000001 -0.000001 0.000001 2.887475 8.303047 12.724781 0.000000 0.000000 0.000000 6.502552 49.145055 20.735554 0.000003 23.528026 -0.000013 -1.075806 12.131592 3.207525 18.491274 0.461413 -10.916078 1.284039 -32.757611 3.088959 2.008700 -8.430469 1.114713 -0.000001 -0.000001 0.000000 0.339564 -4.671356 7.844284 0.387033 -2.823581 20.566258 -0.193127 -0.216346 13.843929 -0.000001 -0.000000 -0.000001 0.912581 -8.769265 15.831738 0.919074 -3.991133 33.400428 0.216466 -1.688833 15.898042 -0.000000 -0.000001 -0.000001 2.555811 -11.673028 26.909195 1.710650 -3.886789 40.215464 -0.157953 0.035277 17.815350 -0.000000 0.000000 -0.000001 5.576078 -16.029170 36.940641 1.378688 -4.077637 45.645618 -0.727749 -0.247557 22.122744 -0.000002 -0.000003 0.000001 -35.457903 -10.000683 28.707770 45.029036 5.495785 8.491110 -7.508504 28.634813 -11.219443 -0.314901 0.000008 -0.000004 0.000000 -0.000001 -0.000000 -28.022702 2.669728 26.612850 22.066982 0.108396 7.934947 0.704986 12.898011 -7.768201 -4.016479 -0.000003 -0.000002 -0.000000 -0.000000 -0.000000 
8.149754 109.635841 -7.020176 7.435202 -32.651921 -21.503196 19.911151 -4.666583 16.137719 14.770574 -0.887985 11.351577 0.000000 0.000000 0.000000 15.016746 -0.679459 9.765319 -9.907218 -2.869384 5.456883 44.501124 -21.464009 34.810592 0.000000 -0.000000 0.000000 1.406875 -22.333692 -11.669301 0.000000 0.000000 0.000000 -28.888842 -25.384538 -57.416332 0.000001 -6.922052 0.000002 -22.902246 -0.751418 -14.745277 18.491269 -0.461423 10.916062 1.284062 32.757608 -3.088966 2.117130 9.311159 -0.358623 -0.000001 0.000001 -0.000000 0.339558 4.671354 -7.844270 0.387034 2.823579 -20.566229 0.034625 0.816833 -10.169806 0.000002 0.000001 -0.000001 0.912586 8.769270 -15.831755 0.919077 3.991132 -33.400424 0.170567 1.488880 -12.264412 0.000000 -0.000001 0.000001 2.555812 11.673031 -26.909209 1.710655 3.886780 -40.215457 0.544856 1.835072 -19.344153 -0.000002 0.000001 -0.000001 5.576069 16.029185 -36.940638 1.378690 4.077645 -45.645635 0.486587 2.853393 -20.524732 0.000000 -0.000000 -0.000000 2.971377 8.302326 12.360877 0.000000 0.000000 0.000000 6.513132 48.819948 20.906755 -0.000000 23.926619 0.000004 -1.214039 11.254100 3.455847 18.491274 0.461413 -10.916078 1.284039 -32.757611 3.088960 2.008704 -8.430472 1.114711 -0.000003 0.000001 0.000000 0.339564 -4.671354 7.844284 0.387033 -2.823580 20.566256 -0.193124 -0.216346 13.843934 0.000000 0.000001 -0.000001 0.912583 -8.769265 15.831738 0.919075 -3.991133 33.400428 0.216467 -1.688833 15.898041 -0.000000 -0.000001 0.000000 2.555811 -11.673026 26.909195 1.710652 -3.886788 40.215461 -0.157952 0.035275 17.815350 0.000000 0.000003 -0.000000 5.576079 -16.029168 36.940648 1.378688 -4.077636 45.645621 -0.727749 -0.247556 22.122747 -0.000000 0.000001 -0.000000 -35.469019 -9.966485 28.708859 44.976208 5.519960 8.490942 -7.506151 28.410448 -11.236864 -0.314777 0.000005 0.000000 -0.000000 -0.000000 0.000000 -27.996221 2.670730 26.627407 22.084850 0.126380 7.895022 0.644207 12.719490 -7.786958 -4.017436 -0.000001 -0.000001 0.000000 -0.000000 -0.000000 
8.060291 109.647499 -7.010288 7.432630 -32.467912 -21.463627 19.843708 -4.701711 16.206046 14.733102 -0.897699 11.382965 0.000000 0.000000 0.000000 14.978634 -0.687934 9.796562 -9.882960 -2.875226 5.450350 44.559898 -21.567907 34.825427 -0.000000 -0.000000 -0.000000 1.400861 -22.363195 -11.688516 0.000000 0.000000 0.000000 -28.676228 -25.589635 -57.546939 0.000004 -6.924421 -0.000000 -23.294333 -1.355446 -14.825021 18.491272 -0.461422 10.916062 1.284062 32.757608 -3.088965 2.117130 9.311161 -0.358622 -0.000001 0.000000 -0.000000 0.339560 4.671353 -7.844272 0.387034 2.823580 -20.566229 0.034627 0.816833 -10.169813 -0.000002 -0.000001 0.000002 0.912586 8.769269 -15.831755 0.919078 3.991132 -33.400424 0.170568 1.488881 -12.264412 0.000001 0.000001 -0.000001 2.555814 11.673030 -26.909210 1.710654 3.886781 -40.215461 0.544857 1.835073 -19.344153 -0.000001 -0.000000 -0.000000 5.576071 16.029182 -36.940638 1.378694 4.077646 -45.645639 0.486590 2.853393 -20.524730 -0.000000 0.000001 -0.000002 3.056621 8.299163 11.995887 0.000000 0.000000 0.000000 6.503500 48.500849 21.102855 0.000003 24.320676 -0.000010 -1.314844 10.373630 3.638589 18.491277 0.461413 -10.916076 1.284045 -32.757611 3.088959 2.008700 -8.430473 1.114714 -0.000001 0.000001 -0.000001 0.339564 -4.671355 7.844284 0.387033 -2.823581 20.566256 -0.193123 -0.216345 13.843933 -0.000000 0.000000 -0.000001 0.912581 -8.769265 15.831736 0.919076 -3.991134 33.400431 0.216467 -1.688833 15.898042 0.000002 -0.000001 -0.000002 2.555811 -11.673027 26.909195 1.710652 -3.886789 40.215461 -0.157953 0.035276 17.815348 0.000000 -0.000002 -0.000001 5.576079 -16.029166 36.940641 1.378690 -4.077637 45.645621 -0.727749 -0.247558 22.122747 -0.000000 -0.000002 0.000000 -35.464811 -9.940497 28.696879 44.912158 5.554787 8.490764 -7.499684 28.180099 -11.257010 -0.314651 0.000008 -0.000002 0.000000 0.000001 0.000001 -27.959026 2.674841 26.636788 22.097223 0.140637 7.850012 0.579765 12.533124 -7.802455 -4.018049 0.000001 -0.000005 -0.000000 0.000000 0.000000 
